:SAMPLES-PER-SECOND 30
:FULLY-SPECIFIED
:DEGREES
228
root  -82.0129 40.8509 1.40848 3.37378 35.5815 2.07675
RightUpLeg  -6.35049 -15.4263 -8.62018
RightLeg  12.0792 -21.8633 0.196597
RightFoot  -3.92891 -0.21642 2.9252
RightToes  -3.31784e-009 0 -3.6325e-017
Spine  9.39696 -0.0969469 2.31626
Spine1  -1.15872 -0.385184 3.01981
HEad  -7.86061 -4.1017 -11.5885
LeftShoulder1  -0.877313 5.73483 -33.0888
LeftArm  -2.93648 12.6431 -41.1275
LeftForeArm  24.6778 -15.4258 -5.79672
LeftHand  -0.111143 8.91736 -1.85299
RightShoulder  -1.02135 -6.44245 28.1509
RightArm  31.0461 -14.3279 35.4755
RightForeArm  8.74775 21.6681 4.56323
RightHand  -0.137898 2.68853 -2.20883
LeftUpLeg  -4.51406 30.383 -1.55854
LeftLeg  23.8309 9.67144 4.96834
LeftFoot  -7.7863 0.00186919 1.6025
LeftToes  1.28511e-009 -3.60458e-011 6.16399e-011
229
root  -82.5267 40.8095 1.34432 3.605 41.8741 1.01331
RightUpLeg  -6.58747 -15.8917 -7.39712
RightLeg  12.6327 -27.6037 -0.106636
RightFoot  -4.26058 -0.189596 2.60429
RightToes  -3.31784e-009 0 -3.6325e-017
Spine  8.67678 -0.123927 2.65362
Spine1  -1.27312 -0.362217 2.73521
HEad  -6.98962 -5.38698 -11.4446
LeftShoulder1  -0.689239 5.31318 -31.95
LeftArm  -2.33764 12.4297 -42.4541
LeftForeArm  25.1647 -15.7555 -5.77119
LeftHand  -0.08301 9.45336 -0.834251
RightShoulder  -1.22087 -6.88895 29.5786
RightArm  30.5362 -14.667 35.4113
RightForeArm  8.51066 20.7335 4.77733
RightHand  -0.186637 2.55999 -3.00362
LeftUpLeg  -3.22832 30.7287 -1.45001
LeftLeg  21.2644 9.61439 4.63077
LeftFoot  -7.34411 0.0558585 -0.575024
LeftToes  1.28511e-009 -3.60458e-011 6.16399e-011
230
root  -82.9683 40.8343 1.30091 3.29015 47.113 0.33075
RightUpLeg  -6.0978 -16.6466 -6.60799
RightLeg  12.6406 -32.0239 -0.379382
RightFoot  -4.30441 -0.15464 2.07051
RightToes  -3.31784e-009 0 -3.6325e-017
Spine  8.86062 -0.0141022 1.35911
Spine1  -1.45841 -0.550237 3.90822
HEad  -6.63111 -7.84669 -10.6922
LeftShoulder1  -0.866996 5.73708 -32.6563
LeftArm  -1.22713 11.8675 -42.2292
LeftForeArm  24.9041 -16.1995 -5.74322
LeftHand  -0.0753004 9.36595 -0.700741
RightShoulder  -1.09014 -6.57403 28.9826
RightArm  28.6743 -15.05 36.8418
RightForeArm  9.75858 19.5753 4.9915
RightHand  -0.05198 4.38803 -0.872851
LeftUpLeg  -0.0796141 27.3282 -1.07691
LeftLeg  15.7139 12.2082 2.71104
LeftFoot  -9.63581 0.076558 -1.12409
LeftToes  1.28511e-009 -3.60458e-011 6.16399e-011
231
root  -83.3431 40.8687 1.24884 2.66377 51.719 0.132339
RightUpLeg  -5.18356 -19.2885 -6.36464
RightLeg  12.7999 -33.4906 -0.732831
RightFoot  -4.62355 -0.130579 1.679
RightToes  -3.31784e-009 0 -3.6325e-017
Spine  9.32487 0.293733 -0.326591
Spine1  -0.927841 -0.5279 4.69331
HEad  -6.54728 -10.1528 -9.81446
LeftShoulder1  -0.925696 5.85795 -33.1519
LeftArm  0.0312084 11.3905 -42.1626
LeftForeArm  23.0067 -16.935 -5.62268
LeftHand  -0.0245005 9.77042 0.742273
RightShoulder  -1.04617 -6.47223 28.7122
RightArm  27.4427 -14.8197 38.2413
RightForeArm  9.00731 18.8849 5.21425
RightHand  -0.0683254 4.76108 -1.07299
LeftUpLeg  3.54631 12.0691 -0.836562
LeftLeg  7.94151 24.9092 -1.1795
LeftFoot  -9.57271 0.027396 1.94923
LeftToes  1.28511e-009 -3.60458e-011 6.16399e-011
232
root  -83.7553 40.8369 1.13047 2.97659 56.0975 -0.457779
RightUpLeg  -7.04503 -25.9275 -4.72798
RightLeg  14.5036 -30.0795 -2.43778
RightFoot  -5.17235 -0.101222 1.24017
RightToes  -3.31784e-009 0 -3.6325e-017
Spine  9.62114 0.393618 -1.13603
Spine1  -1.66844 -0.460362 4.51818
HEad  -6.21875 -13.0827 -9.04044
LeftShoulder1  -0.880173 5.74189 -33.1492
LeftArm  0.404257 11.3161 -41.8052
LeftForeArm  21.6741 -17.2992 -5.51533
LeftHand  -0.0243329 8.97724 0.752828
RightShoulder  -1.09255 -6.58537 28.9077
RightArm  27.9816 -14.7918 38.9648
RightForeArm  7.85715 19.3191 5.15494
RightHand  -0.175357 4.31111 -2.38916
LeftUpLeg  3.05339 7.35115 -1.34882
LeftLeg  4.71441 25.4743 -1.34684
LeftFoot  -9.61361 0.0222326 2.36252
LeftToes  1.28511e-009 -3.60458e-011 6.16399e-011
233
root  -84.1223 40.8022 1.03603 4.79881 59.7995 0.516632
RightUpLeg  -10.299 -32.1132 -2.80705
RightLeg  16.1108 -22.131 -4.41502
RightFoot  -5.83068 -0.124104 1.74047
RightToes  -3.31784e-009 0 -3.6325e-017
Spine  9.30301 0.688598 -2.72893
Spine1  -1.66481 -0.169031 3.93022
HEad  -6.25529 -14.8893 -6.99983
LeftShoulder1  -0.757558 5.45203 -32.7261
LeftArm  0.0665752 10.725 -41.5118
LeftForeArm  21.6255 -17.0545 -5.585
LeftHand  -0.0447445 9.04465 0.151459
RightShoulder  -1.27145 -6.97417 30.1467
RightArm  28.1253 -14.1006 39.0894
RightForeArm  7.63846 19.3928 5.15806
RightHand  -0.230922 3.9638 -3.11733
LeftUpLeg  1.02139 6.65578 -2.1047
LeftLeg  4.87737 22.5577 -0.404571
LeftFoot  -9.14684 0.020301 1.82209
LeftToes  1.28511e-009 -3.60458e-011 6.16399e-011
234
root  -84.4993 40.7856 1.01145 6.71367 62.7555 2.08228
RightUpLeg  -12.757 -29.0286 -2.03532
RightLeg  16.8692 -12.4277 -3.93443
RightFoot  -6.80386 -0.106339 1.5275
RightToes  -3.31784e-009 0 -3.6325e-017
Spine  9.98771 0.574676 -3.58638
Spine1  -2.043 -0.0425559 2.24364
HEad  -6.8306 -15.4822 -5.73664
LeftShoulder1  -0.743773 5.43665 -32.3216
LeftArm  0.182642 10.6036 -40.5879
LeftForeArm  20.7733 -17.4914 -5.41104
LeftHand  -0.0588751 9.81051 -0.137727
RightShoulder  -1.30581 -7.03088 30.5142
RightArm  27.107 -13.7135 40.65
RightForeArm  7.51062 18.6075 5.4176
RightHand  -0.309927 4.85244 -3.80283
LeftUpLeg  -0.230426 6.16304 -2.58978
LeftLeg  4.69591 19.917 -0.311355
LeftFoot  -8.53225 0.019283 1.30444
LeftToes  1.28511e-009 -3.60458e-011 6.16399e-011
235
root  -84.7853 40.76 1.0266 8.42967 65.471 3.68048
RightUpLeg  -13.2578 -17.1996 -3.29028
RightLeg  16.7122 -2.92218 -1.14091
RightFoot  -8.57813 -0.106396 2.02629
RightToes  -3.31784e-009 0 -3.6325e-017
Spine  10.4335 0.544331 -4.19275
Spine1  -2.17965 0.0876898 1.07006
HEad  -6.52265 -16.2767 -6.66832
LeftShoulder1  -0.801157 5.57547 -32.5144
LeftArm  -1.44375 9.54571 -39.5681
LeftForeArm  22.0802 -16.0663 -5.81068
LeftHand  -0.0588656 9.98289 -0.14617
RightShoulder  -1.16222 -6.70115 29.8406
RightArm  26.5232 -14.4092 42.0778
RightForeArm  7.80618 18.3945 5.4666
RightHand  -0.217875 4.74618 -2.9621
LeftUpLeg  -1.22299 5.98359 -2.82672
LeftLeg  4.99466 17.192 -0.341281
LeftFoot  -8.11545 0.0189504 1.05636
LeftToes  1.28511e-009 -3.60458e-011 6.16399e-011
